PathFileType  4	(X/Y/Z) C:\Users\hpl\Documents\MyRepositories\mocap-processing\Data\treadmill\running\
DataRate	CameraRate	NumFrames	NumMarkers	Units	OrigDataRate	OrigDataStartFrame	OrigNumFrames
  200.0		  200.0		    7		     46		 mm	  200.0	      1	    785
Frame#	Time	r_knee			r_shank_antsup			r_ankle			r_calc			r_5meta			r_toe			L_knee			L_shank_antsup			L_ankle			L_calc			L_5meta			L_toe			r_sh2			r_sh3			r_sh4			L_sh2			L_sh3			r_thigh1			r_thigh2			r_thigh3			r_thigh4			r_thigh5			L_thigh1			L_thigh2			L_thigh3			L_thigh4			r.ASIS			r.PSIS			L.ASIS			L.PSIS			C7			R_Shoulder			L_Shoulder			Sternum			R_humerus			R_elbow_med			R_elbow_lat			R_forearm			R_wrist_radius			R_wrist_ulna			L_humerus			L_elbow_med			L_elbow_lat			L_forearm			L_wrist_radius			L_wrist_ulna			
		X1	Y1	Z1	X2	Y2	Z2	X3	Y3	Z3	X4	Y4	Z4	X5	Y5	Z5	X6	Y6	Z6	X7	Y7	Z7	X8	Y8	Z8	X9	Y9	Z9	X10	Y10	Z10	X11	Y11	Z11	X12	Y12	Z12	X13	Y13	Z13	X14	Y14	Z14	X15	Y15	Z15	X16	Y16	Z16	X17	Y17	Z17	X18	Y18	Z18	X19	Y19	Z19	X20	Y20	Z20	X21	Y21	Z21	X22	Y22	Z22	X23	Y23	Z23	X24	Y24	Z24	X25	Y25	Z25	X26	Y26	Z26	X27	Y27	Z27	X28	Y28	Z28	X29	Y29	Z29	X30	Y30	Z30	X31	Y31	Z31	X32	Y32	Z32	X33	Y33	Z33	X34	Y34	Z34	X35	Y35	Z35	X36	Y36	Z36	X37	Y37	Z37	X38	Y38	Z38	X39	Y39	Z39	X40	Y40	Z40	X41	Y41	Z41	X42	Y42	Z42	X43	Y43	Z43	X44	Y44	Z44	X45	Y45	Z45	X46	Y46	Z46	

1	0.00000	657.062	155.233	548.313	598.364	149.606	440.494	361.193	195.816	208.116	299.405	268.615	244.312	361.709	172.038	64.183	413.652	229.379	58.841	1031.007	478.782	594.325	997.576	472.526	473.074	799.450	404.928	229.884	742.270	344.127	233.361	903.666	430.889	104.970	950.624	367.706	111.701	517.517	160.274	353.262	542.520	136.558	488.365	460.279	165.086	412.356	923.616	475.565	524.254	865.455	449.874	419.812	828.445	141.884	717.773	776.021	162.518	617.600	726.021	141.526	604.212	726.973	104.759	756.046	680.200	134.166	651.826	1012.118	478.543	834.043	1076.284	461.032	710.562	914.182	520.098	780.841	979.312	487.340	660.805	911.006	173.794	1002.748	705.731	235.013	1080.492	888.179	442.561	1029.027	695.078	339.904	1080.019	823.535	285.130	1566.307	892.192	105.472	1524.456	823.334	472.166	1550.264	961.430	321.828	1451.020	850.681	16.773	1306.697	721.504	34.776	1201.288	750.951	-48.863	1232.313	911.691	21.224	1197.527	1004.095	75.290	1170.050	998.135	46.772	1126.354	672.045	561.784	1370.270	540.206	494.880	1309.182	568.348	581.794	1344.431	688.525	578.350	1230.563	787.573	526.289	1194.475	748.554	557.698	1141.083
2	0.00500	649.511	155.597	555.150	588.874	148.834	448.828	351.750	193.302	215.856	292.054	265.582	255.813	344.806	171.015	71.405	396.731	228.115	62.883	1030.712	479.422	595.003	1003.955	472.931	471.883	822.388	404.394	215.089	765.763	343.112	215.636	934.068	430.354	96.658	980.832	368.032	107.148	507.768	158.823	361.683	533.190	136.901	496.799	450.749	164.928	420.907	926.702	476.062	517.899	875.630	449.692	410.037	824.815	142.718	720.853	770.311	163.171	620.791	720.012	142.926	609.235	724.278	105.164	761.046	675.308	134.826	657.925	1013.365	480.405	836.191	1076.425	462.493	712.233	914.827	519.276	782.657	978.655	486.919	662.852	912.916	174.542	1004.958	707.757	235.303	1083.230	889.671	442.931	1032.624	696.802	340.044	1083.346	823.388	285.665	1568.685	892.681	106.866	1527.947	822.215	471.696	1553.347	961.098	323.161	1454.836	852.734	16.998	1310.964	722.308	33.299	1205.831	753.237	-49.789	1236.846	913.061	22.603	1203.952	1005.025	78.145	1177.358	1000.043	49.539	1133.848	669.210	561.218	1375.878	537.536	492.936	1315.381	564.762	580.107	1350.854	684.809	578.107	1237.114	784.015	527.111	1200.510	745.058	558.455	1147.474
3	0.01000	642.905	156.309	561.524	580.429	148.997	456.900	342.696	190.945	224.189	284.896	262.532	267.442	329.061	169.969	79.651	380.916	226.701	67.384	1029.772	479.731	595.063	1009.348	473.535	470.126	845.951	404.347	201.153	789.941	342.672	198.587	964.665	430.168	89.471	1011.498	368.886	104.310	498.860	157.871	369.962	525.112	137.466	505.257	442.226	164.401	429.396	929.223	476.418	511.172	885.794	449.583	400.046	821.679	143.498	724.167	764.773	164.621	624.895	714.586	144.199	614.018	721.960	105.960	765.824	670.839	135.428	663.923	1014.079	482.439	837.637	1076.170	464.120	712.943	914.493	518.786	784.604	977.274	486.036	664.326	914.684	175.384	1007.025	709.743	234.393	1086.153	891.274	443.385	1036.022	698.944	339.953	1086.323	823.395	285.926	1571.144	893.376	108.111	1531.241	821.380	471.586	1556.256	960.823	324.316	1458.411	854.464	17.131	1315.091	723.752	31.971	1210.002	755.214	-50.657	1241.124	914.133	23.875	1210.173	1005.730	80.944	1184.182	1001.529	52.873	1141.129	666.594	560.714	1381.345	535.077	491.128	1321.052	561.716	578.496	1357.149	681.421	577.936	1243.296	781.288	527.839	1206.428	741.729	559.104	1153.418
4	0.01500	637.397	157.401	567.560	573.135	149.150	464.071	334.090	188.786	233.141	278.210	259.746	279.320	313.764	168.917	88.718	365.555	224.960	72.211	1027.790	479.682	594.562	1014.681	473.683	468.429	870.012	404.669	188.073	814.767	342.659	182.269	996.011	431.120	84.288	1041.469	369.849	102.343	490.658	157.283	377.942	518.425	138.245	513.115	434.757	163.999	437.856	931.637	476.725	503.845	895.731	449.866	390.249	818.955	144.149	727.133	760.141	165.739	628.862	709.746	145.514	618.786	720.103	106.558	770.712	666.828	136.914	669.780	1014.465	484.331	838.139	1075.473	465.621	713.252	913.588	518.039	786.094	975.465	485.052	665.583	916.332	176.184	1008.888	711.755	234.492	1088.887	892.868	443.847	1039.247	700.834	339.934	1089.375	823.177	286.395	1573.352	893.921	109.381	1534.205	820.244	472.192	1558.870	960.590	325.392	1461.754	856.021	17.007	1318.904	724.549	30.612	1213.981	757.100	-51.591	1245.322	914.906	25.036	1216.083	1006.147	83.652	1190.664	1002.599	55.255	1147.751	664.172	560.239	1386.562	532.648	489.433	1326.728	558.640	577.094	1363.147	678.159	577.769	1249.267	778.474	528.346	1211.683	738.674	559.608	1159.033
5	0.02000	632.858	158.859	572.921	567.237	149.773	470.543	325.781	186.827	242.568	272.699	257.189	291.730	298.785	167.503	98.722	350.432	222.536	77.521	1025.084	479.345	593.375	1018.765	473.911	466.287	893.556	405.736	176.023	839.504	343.868	166.828	1025.958	431.983	79.722	1071.102	371.400	101.835	483.572	157.354	385.439	513.346	138.605	520.274	428.337	163.236	446.117	934.102	476.534	496.444	905.298	450.276	381.232	816.525	144.692	730.577	756.307	166.594	632.310	705.418	146.146	623.925	718.334	107.402	775.077	663.582	138.131	675.310	1014.675	485.928	838.509	1074.271	466.900	712.659	912.204	516.852	787.263	972.821	483.684	666.190	917.786	176.794	1010.622	713.644	234.656	1091.527	894.384	444.299	1042.105	702.503	340.096	1092.385	822.795	287.251	1575.425	894.358	110.623	1536.929	819.191	472.640	1561.224	960.391	326.370	1464.807	857.488	16.897	1322.654	725.255	29.501	1217.712	758.566	-52.525	1249.240	915.488	26.185	1221.505	1006.241	86.126	1196.800	1003.589	57.409	1154.039	662.022	559.922	1391.519	530.546	487.990	1331.576	555.999	575.736	1368.798	675.134	577.626	1254.800	775.879	529.126	1216.485	735.761	560.231	1164.102
6	0.02500	629.564	160.196	577.844	562.654	151.290	476.175	318.025	184.945	252.349	267.748	255.022	304.184	283.600	166.143	109.213	335.265	219.386	83.659	1021.823	478.537	591.606	1022.253	474.181	463.639	917.654	407.039	164.881	865.190	344.627	152.607	1056.239	433.624	77.018	1100.186	373.516	102.639	477.885	157.507	392.527	509.674	138.941	526.669	423.363	162.420	453.977	936.278	476.232	488.586	914.463	450.705	373.061	814.914	144.086	732.807	753.225	167.608	635.752	701.938	147.214	628.227	717.467	107.543	778.890	660.975	139.668	680.273	1014.497	487.250	837.830	1072.459	468.470	711.336	910.760	515.391	787.887	969.682	482.139	666.438	919.209	177.348	1012.189	715.393	234.904	1094.280	896.094	444.718	1044.710	704.468	340.141	1095.139	822.706	287.644	1577.429	894.728	111.718	1539.481	818.483	472.967	1563.288	960.150	327.306	1467.587	858.565	16.548	1326.153	725.764	28.360	1221.344	759.934	-53.306	1252.851	915.789	27.024	1226.611	1006.121	88.356	1202.402	1004.264	59.445	1159.910	659.927	559.667	1396.096	529.049	486.311	1336.439	553.615	574.439	1373.980	672.479	577.554	1259.983	773.605	529.809	1221.003	733.075	560.879	1168.788
7	0.03000	626.402	162.457	582.795	559.268	153.066	481.355	310.215	183.865	261.917	262.640	253.625	316.235	268.664	164.696	119.948	320.412	216.364	91.206	1018.119	477.451	589.228	1026.128	474.279	461.284	943.050	408.488	155.697	890.955	346.042	140.272	1085.431	435.835	75.254	1128.012	376.120	103.407	473.134	158.099	398.891	507.516	139.780	532.732	419.508	161.717	461.160	938.443	474.898	481.092	923.207	451.148	365.682	813.831	144.147	734.601	750.731	165.478	639.774	699.377	148.080	632.017	716.615	108.727	782.344	659.060	141.522	684.678	1013.965	488.583	836.839	1069.358	469.416	708.941	908.435	513.605	788.023	965.970	480.417	665.874	920.326	177.820	1013.700	716.392	233.674	1096.912	897.464	445.149	1046.703	706.389	340.026	1097.932	822.804	288.018	1579.179	895.032	112.835	1541.802	818.371	472.973	1565.226	960.106	328.140	1470.129	859.687	16.013	1329.485	726.229	27.206	1224.602	761.061	-54.214	1256.195	915.940	27.850	1231.109	1005.863	90.552	1207.360	1004.655	61.206	1165.209	658.299	559.558	1400.378	527.531	485.095	1340.556	551.497	573.304	1378.777	669.958	577.550	1264.609	771.613	530.487	1225.176	730.794	561.462	1173.146
